<svg width="49" height="48" viewBox="0 0 49 48" fill="none" xmlns="http://www.w3.org/2000/svg">
<g id="Facebook">
<path id="Vector" d="M21.6204 41.8C13.0519 40.3 6.49951 32.9 6.49951 24C6.49951 14.1 14.6648 6 24.6445 6C34.6243 6 42.7896 14.1 42.7896 24C42.7896 32.9 36.2372 40.3 27.6687 41.8L26.6607 41H22.6284L21.6204 41.8Z" fill="url(#paint0_linear_37_131)"/>
<path id="Vector_2" d="M31.7009 29L32.5074 24H27.6687V20.5C27.6687 19.1 28.1727 18 30.3905 18H32.709V13.4C31.3985 13.2 29.9872 13 28.6768 13C24.5437 13 21.6204 15.5 21.6204 20V24H17.0841V29H21.6204V41.7C22.6284 41.9 23.6365 42 24.6445 42C25.6526 42 26.6607 41.9 27.6687 41.7V29H31.7009Z" fill="white"/>
</g>
<defs>
<linearGradient id="paint0_linear_37_131" x1="24.6445" y1="40.754" x2="24.6445" y2="6" gradientUnits="userSpaceOnUse">
<stop stop-color="#0062E0"/>
<stop offset="1" stop-color="#19AFFF"/>
</linearGradient>
</defs>
</svg>
